<?xml version="1.0" encoding="UTF-8" standalone="no"?>
<!-- Created with Inkscape (http://www.inkscape.org/) -->

<svg
   xmlns:dc="http://purl.org/dc/elements/1.1/"
   xmlns:cc="http://creativecommons.org/ns#"
   xmlns:rdf="http://www.w3.org/1999/02/22-rdf-syntax-ns#"
   xmlns:svg="http://www.w3.org/2000/svg"
   xmlns="http://www.w3.org/2000/svg"
   xmlns:sodipodi="http://sodipodi.sourceforge.net/DTD/sodipodi-0.dtd"
   xmlns:inkscape="http://www.inkscape.org/namespaces/inkscape"
   id="svg2902"
   sodipodi:docname="mobile-media-blocker.svg"
   inkscape:export-filename="/home/yves/Bureau/interdictions/prohibition-8.png"
   viewBox="0 0 32 32.000001"
   sodipodi:version="0.32"
   inkscape:export-xdpi="190.49831"
   version="1.0"
   inkscape:output_extension="org.inkscape.output.svg.inkscape"
   inkscape:export-ydpi="190.49831"
   inkscape:version="0.92.4 5da689c313, 2019-01-14"
   width="32"
   height="32">
  <defs
     id="defs26" />
  <sodipodi:namedview
     id="base"
     bordercolor="#666666"
     inkscape:pageshadow="2"
     inkscape:window-y="301"
     pagecolor="#ffffff"
     inkscape:window-height="1102"
     inkscape:zoom="1.979899"
     inkscape:window-x="408"
     showgrid="false"
     borderopacity="1.0"
     inkscape:current-layer="layer1"
     inkscape:cx="-111.56932"
     inkscape:cy="11.118757"
     inkscape:window-width="1753"
     inkscape:pageopacity="0.0"
     inkscape:document-units="px"
     fit-margin-top="0"
     fit-margin-left="0"
     fit-margin-right="0"
     fit-margin-bottom="0"
     inkscape:window-maximized="0" />
  <g
     id="layer1"
     inkscape:label="Calque 1"
     inkscape:groupmode="layer"
     transform="translate(-290.48325,-564.06937)">
    <path
       id="path9"
       style="fill:#fffffc;fill-opacity:1;stroke-width:0.21585368"
       d="m 306.91707,595.27639 c 8.44355,-0.24607 15.08969,-7.2937 14.84145,-15.73789 -0.24607,-8.44441 -7.29369,-15.08947 -15.73789,-14.8421 -8.44441,0.24759 -15.08947,7.29413 -14.8421,15.73854 0.2478,8.44355 7.29413,15.08968 15.73854,14.84145 z"
       inkscape:connector-curvature="0" />
    <g
       id="g2195"
       transform="matrix(0.05955177,0.02997196,-0.02997196,0.05955177,308.42365,560.47138)">
      <path
         style="color:#000000;font-style:normal;font-variant:normal;font-weight:normal;font-stretch:normal;font-size:medium;line-height:normal;font-family:sans-serif;font-variant-ligatures:normal;font-variant-position:normal;font-variant-caps:normal;font-variant-numeric:normal;font-variant-alternates:normal;font-feature-settings:normal;text-indent:0;text-align:start;text-decoration:none;text-decoration-line:none;text-decoration-style:solid;text-decoration-color:#000000;letter-spacing:normal;word-spacing:normal;text-transform:none;writing-mode:lr-tb;direction:ltr;text-orientation:mixed;dominant-baseline:auto;baseline-shift:baseline;text-anchor:start;white-space:normal;shape-padding:0;clip-rule:nonzero;display:inline;overflow:visible;visibility:visible;opacity:1;isolation:auto;mix-blend-mode:normal;color-interpolation:sRGB;color-interpolation-filters:linearRGB;solid-color:#000000;solid-opacity:1;vector-effect:none;fill:#000000;fill-opacity:1;fill-rule:nonzero;stroke:none;stroke-width:129.11000061;stroke-linecap:butt;stroke-linejoin:miter;stroke-miterlimit:4;stroke-dasharray:none;stroke-dashoffset:0;stroke-opacity:1;color-rendering:auto;image-rendering:auto;shape-rendering:auto;text-rendering:auto;enable-background:accumulate"
         d="m 30.612511,57.722337 c 0,0 -48.285631,133.719813 11.25663,262.430003 41.474318,84.35287 1.761718,162.51953 1.761718,162.51954 l 133.948601,4.19918 c 0,0 35.70504,-102.85669 -19.84899,-223.68747 v -0.002 C 123.79158,194.1578 161.47266,69.831981 161.47266,69.831981 Z"
         id="path11-3"
         inkscape:connector-curvature="0"
         sodipodi:nodetypes="cccccccc" />
      <path
         style="color:#000000;font-style:normal;font-variant:normal;font-weight:normal;font-stretch:normal;font-size:medium;line-height:normal;font-family:sans-serif;font-variant-ligatures:normal;font-variant-position:normal;font-variant-caps:normal;font-variant-numeric:normal;font-variant-alternates:normal;font-feature-settings:normal;text-indent:0;text-align:start;text-decoration:none;text-decoration-line:none;text-decoration-style:solid;text-decoration-color:#000000;letter-spacing:normal;word-spacing:normal;text-transform:none;writing-mode:lr-tb;direction:ltr;text-orientation:mixed;dominant-baseline:auto;baseline-shift:baseline;text-anchor:start;white-space:normal;shape-padding:0;clip-rule:nonzero;display:inline;overflow:visible;visibility:visible;opacity:1;isolation:auto;mix-blend-mode:normal;color-interpolation:sRGB;color-interpolation-filters:linearRGB;solid-color:#000000;solid-opacity:1;vector-effect:none;fill:#ffffff;fill-opacity:1;fill-rule:nonzero;stroke:none;stroke-width:114.76000214;stroke-linecap:butt;stroke-linejoin:miter;stroke-miterlimit:4;stroke-dasharray:21.51819663, 21.51819663;stroke-dashoffset:0;stroke-opacity:1;color-rendering:auto;image-rendering:auto;shape-rendering:auto;text-rendering:auto;enable-background:accumulate"
         d="m 32.990234,75.785156 c -1.757776,7.530066 -3.405412,15.087259 -4.822263,22.689453 37.570963,7.195961 75.141929,14.391931 112.712889,21.587891 1.13761,-6.11144 2.45755,-12.18792 3.88281,-18.23828 L 33.273438,74.628906 33.01957,75.665386 Z m -9.378906,50.958984 c -0.865551,6.661 -1.605065,13.33886 -2.181636,20.03125 38.102213,3.39844 76.204425,6.79687 114.306638,10.19531 0.53894,-6.27121 1.25983,-12.52616 2.13086,-18.75976 L 24.148438,122.7793 Z m -3.757812,50.11133 c -0.09843,6.7547 -0.05586,13.51266 0.199161,20.26367 38.223958,-1.50195 76.447915,-3.00391 114.671873,-4.50586 -0.21004,-5.9878 -0.19902,-11.98193 -0.0312,-17.9707 -38.24414,-0.86068 -76.488279,-1.72135 -114.732419,-2.58203 -0.0358,1.59831 -0.07161,3.19661 -0.107415,4.79492 z m 2.02539,45.76562 c 0.930776,8.66755 2.20347,17.30076 3.861332,25.85938 37.559244,-7.25195 75.118492,-14.50391 112.677732,-21.75586 -2.32305,-4.83202 0.28152,-15.42847 -4.59401,-16.46113 -37.315017,4.1192 -74.630035,8.23841 -111.945054,12.35761 z m 10.097656,51.90625 c 2.532613,8.79683 5.509066,17.46986 8.964844,25.94727 35.433595,-14.41341 70.867194,-28.82682 106.300784,-43.24023 -3.13372,-3.82244 -2.19857,-14.46796 -7.11009,-14.11958 -36.05185,10.47084 -72.103692,20.94169 -108.155538,31.41254 z m 18.65625,47.39454 c 2.399885,5.22118 4.521911,10.56552 6.453126,15.97656 35.780879,-13.54436 72.045542,-25.72228 108.261722,-38.03711 -2.96907,-8.43961 -6.29049,-16.75725 -10.00191,-24.89844 -34.90431,15.653 -69.808625,31.30599 -104.712938,46.95899 z m 10.917969,30.66992 c 1.405345,5.50481 2.577617,11.08133 3.517617,16.67578 37.663042,-6.67712 75.549362,-12.01776 113.310552,-18.10742 -1.4015,-8.6754 -3.19684,-17.28619 -5.34766,-25.80664 -37.16017,9.07943 -74.320339,18.15885 -111.480509,27.23828 z m 5.46875,33.16797 c 0.439914,5.58121 0.596562,11.18166 0.576255,16.77924 38.252624,-0.30585 76.497454,0.7709 114.746094,1.17191 0.0776,-8.9034 -0.20644,-17.81189 -0.89411,-26.68946 z m -0.554687,36.81835 c 0.854759,4.90492 -5.433296,14.63939 2.374225,14.244 36.310151,6.16672 72.620311,12.33343 108.930461,18.50015 1.42776,-8.44083 2.5097,-16.93942 3.28302,-25.46485 -38.07877,-3.65365 -76.15755,-7.30729 -114.236324,-10.96094 z m -6.47461,34.9004 c -0.933639,5.7916 -7.22582,13.99451 2.435243,14.12857 L 165.41602,505.2832 c 2.65885,-7.99511 4.97648,-16.10181 7.01171,-24.27734 C 135.36849,471.52279 98.309243,462.03971 61.25,452.55664 Z"
         id="path13-6"
         inkscape:connector-curvature="0"
         sodipodi:nodetypes="cccccccccccccccccccccccccccccccccccccccccccccccccccccccc" />
      <path
         style="color:#000000;font-style:normal;font-variant:normal;font-weight:normal;font-stretch:normal;font-size:medium;line-height:normal;font-family:sans-serif;font-variant-ligatures:normal;font-variant-position:normal;font-variant-caps:normal;font-variant-numeric:normal;font-variant-alternates:normal;font-feature-settings:normal;text-indent:0;text-align:start;text-decoration:none;text-decoration-line:none;text-decoration-style:solid;text-decoration-color:#000000;letter-spacing:normal;word-spacing:normal;text-transform:none;writing-mode:lr-tb;direction:ltr;text-orientation:mixed;dominant-baseline:auto;baseline-shift:baseline;text-anchor:start;white-space:normal;shape-padding:0;clip-rule:nonzero;display:inline;overflow:visible;visibility:visible;opacity:1;isolation:auto;mix-blend-mode:normal;color-interpolation:sRGB;color-interpolation-filters:linearRGB;solid-color:#000000;solid-opacity:1;vector-effect:none;fill:#000000;fill-opacity:1;fill-rule:nonzero;stroke:none;stroke-width:106.51000214;stroke-linecap:butt;stroke-linejoin:miter;stroke-miterlimit:4;stroke-dasharray:none;stroke-dashoffset:0;stroke-opacity:1;color-rendering:auto;image-rendering:auto;shape-rendering:auto;text-rendering:auto;enable-background:accumulate"
         d="m 43.559681,57.688279 c 0,0 -47.4347105,129.028451 8.448131,257.477741 43.997705,89.48191 1.685547,172.64843 1.685547,172.64843 L 163.6447,488.1687 c 0,0 40.02974,-92.50974 -16.05486,-220.00073 -37.03877,-75.32823 3.31641,-202.341798 3.31641,-202.341798 z"
         id="path15"
         inkscape:connector-curvature="0"
         sodipodi:nodetypes="ccccccc" />
      <path
         style="color:#000000;font-style:normal;font-variant:normal;font-weight:normal;font-stretch:normal;font-size:medium;line-height:normal;font-family:sans-serif;font-variant-ligatures:normal;font-variant-position:normal;font-variant-caps:normal;font-variant-numeric:normal;font-variant-alternates:normal;font-feature-settings:normal;text-indent:0;text-align:start;text-decoration:none;text-decoration-line:none;text-decoration-style:solid;text-decoration-color:#000000;letter-spacing:normal;word-spacing:normal;text-transform:none;writing-mode:lr-tb;direction:ltr;text-orientation:mixed;dominant-baseline:auto;baseline-shift:baseline;text-anchor:start;white-space:normal;shape-padding:0;clip-rule:nonzero;display:inline;overflow:visible;visibility:visible;opacity:1;isolation:auto;mix-blend-mode:normal;color-interpolation:sRGB;color-interpolation-filters:linearRGB;solid-color:#000000;solid-opacity:1;vector-effect:none;fill:#ffffff;fill-opacity:1;fill-rule:nonzero;stroke:none;stroke-width:93.19999695;stroke-linecap:butt;stroke-linejoin:miter;stroke-miterlimit:4;stroke-dasharray:69.23408039, 26.62848142;stroke-dashoffset:0;stroke-opacity:1;color-rendering:auto;image-rendering:auto;shape-rendering:auto;text-rendering:auto;enable-background:accumulate"
         d="m 50.556641,51.667969 c -5.273502,17.841332 -9.542277,35.978879 -12.81251,54.292971 30.616536,5.27148 61.233073,10.54297 91.849609,15.81445 3.65055,-19.94795 8.52288,-39.715171 15.28906,-58.845702 C 113.10065,61.581175 82.384201,52.090397 50.556641,51.667969 Z M 33.060547,138.51953 c -2.677898,24.90459 -3.330132,50.06622 -1.234338,75.04102 30.935982,-2.84446 61.860013,-5.83363 92.863281,-7.86328 -1.65599,-20.0631 -0.94227,-40.27334 1.38292,-60.25391 -30.869794,-3.49219 -61.739588,-6.98437 -92.609382,-10.47656 -0.13416,1.18424 -0.268321,2.36849 -0.402481,3.55273 z m 2.896484,106.01367 c 4.636791,26.3034 13.709266,51.63082 25.634765,75.47849 28.346355,-12.71224 56.692714,-25.42448 85.039064,-38.13672 -8.66381,-17.44337 -16.03101,-35.68175 -19.16402,-55.00977 -30.50327,5.88933 -61.006539,11.77867 -91.509809,17.668 z m 33.13086,95.34961 c 5.671506,17.79541 8.678622,36.42155 9.212912,55.07228 31.051587,-0.84248 62.114097,-1.32045 93.169917,-2.02149 -0.70309,-27.49723 -5.18031,-54.91829 -13.51772,-81.13867 -29.6217,9.36263 -59.243406,18.72525 -88.865109,28.08788 z m 8.435547,80.28516 c -1.61362,18.21017 -5.397902,36.22407 -11.1875,53.5625 29.528647,9.6556 59.057292,19.3112 88.585942,28.9668 8.43187,-25.37675 13.76751,-51.78919 15.77533,-78.45704 -30.96745,-2.48568 -61.9349,-4.97135 -92.902348,-7.45703 -0.09047,1.12826 -0.180949,2.25651 -0.271424,3.38477 z"
         id="path17"
         inkscape:connector-curvature="0" />
    </g>
    <path
       style="fill:#ff0000;stroke:none;stroke-width:0.7205779"
       d="m 306.83837,564.07338 c -0.273,-0.006 -0.54776,-0.005 -0.82379,0.003 -8.83284,0.25868 -15.78325,7.62926 -15.52432,16.4621 0.25893,8.83213 7.62926,15.78327 16.46211,15.52386 8.83212,-0.25701 15.78326,-7.6288 15.52385,-16.46164 -0.24897,-8.55682 -7.17486,-15.34696 -15.63785,-15.52761 z m -0.15997,3.74363 c 6.48212,0.13831 11.78554,5.33967 11.97867,11.89376 0.19696,6.7655 -5.12567,12.41028 -11.89141,12.60964 -6.76551,0.19696 -12.41078,-5.12566 -12.60918,-11.89141 -0.1984,-6.76551 5.12591,-12.41102 11.89141,-12.60918 0.21142,-0.006 0.42141,-0.007 0.63051,-0.003 z"
       id="path10"
       inkscape:connector-curvature="0" />
    <path
       inkscape:connector-curvature="0"
       d="m 317.46331,589.33955 -20.04528,-19.95281 -1.89391,1.88552 20.04407,19.9528 z"
       style="fill:#ff0000;stroke-width:0.24019262"
       id="path13" />
  </g>
  <metadata
     id="metadata23">
    <rdf:RDF>
      <cc:Work>
        <dc:format>image/svg+xml</dc:format>
        <dc:type
           rdf:resource="http://purl.org/dc/dcmitype/StillImage" />
        <cc:license
           rdf:resource="http://creativecommons.org/publicdomain/zero/1.0/" />
        <dc:publisher>
          <cc:Agent
             rdf:about="http://openclipart.org/">
            <dc:title>Openclipart</dc:title>
          </cc:Agent>
        </dc:publisher>
        <dc:title></dc:title>
        <dc:date>2008-01-11T18:22:30</dc:date>
        <dc:description />
        <dc:source>https://openclipart.org/detail/10984/prohibition-8-by-yves_guillou-10984</dc:source>
        <dc:creator>
          <cc:Agent>
            <dc:title>yves_guillou</dc:title>
          </cc:Agent>
        </dc:creator>
        <dc:subject>
          <rdf:Bag>
            <rdf:li>no smoking</rdf:li>
            <rdf:li>risk</rdf:li>
            <rdf:li>sign</rdf:li>
          </rdf:Bag>
        </dc:subject>
      </cc:Work>
      <cc:License
         rdf:about="http://creativecommons.org/publicdomain/zero/1.0/">
        <cc:permits
           rdf:resource="http://creativecommons.org/ns#Reproduction" />
        <cc:permits
           rdf:resource="http://creativecommons.org/ns#Distribution" />
        <cc:permits
           rdf:resource="http://creativecommons.org/ns#DerivativeWorks" />
      </cc:License>
    </rdf:RDF>
  </metadata>
</svg>
